<svg width="24" height="25" viewBox="0 0 24 25" fill="none" xmlns="http://www.w3.org/2000/svg">
<path d="M14.5 11.8999H9.5C9.09 11.8999 8.75 11.5599 8.75 11.1499C8.75 10.7399 9.09 10.3999 9.5 10.3999H14.5C14.91 10.3999 15.25 10.7399 15.25 11.1499C15.25 11.5599 14.91 11.8999 14.5 11.8999Z" fill="white"/>
<path d="M4.93 23.25C4.51 23.25 4.12 23.15 3.77 22.95C3 22.5 2.56 21.59 2.56 20.46V6.36C2.56 3.82 4.63 1.75 7.17 1.75H16.82C19.36 1.75 21.43 3.82 21.43 6.36V20.45C21.43 21.58 20.99 22.49 20.22 22.94C19.45 23.39 18.44 23.34 17.45 22.79L12.57 20.08C12.28 19.92 11.71 19.92 11.42 20.08L6.54 22.79C6 23.09 5.45 23.25 4.93 23.25ZM7.18 3.25C5.47 3.25 4.07 4.65 4.07 6.36V20.45C4.07 21.04 4.24 21.48 4.54 21.65C4.84 21.83 5.31 21.77 5.82 21.48L10.7 18.77C11.44 18.36 12.56 18.36 13.3 18.77L18.18 21.48C18.69 21.77 19.16 21.83 19.46 21.65C19.76 21.47 19.93 21.03 19.93 20.45V6.36C19.93 4.65 18.53 3.25 16.82 3.25H7.18Z" fill="white"/>
</svg>
