<svg width="32" height="32" viewBox="0 0 32 32" fill="none" xmlns="http://www.w3.org/2000/svg">
<path d="M22.9866 30.3334H9.01324C5.27991 30.3334 2.90657 28.1068 2.69324 24.3867L1.99991 13.3867C1.89324 11.7201 2.46657 10.1201 3.61324 8.90675C4.74657 7.69341 6.34657 7.00008 7.99991 7.00008C8.42657 7.00008 8.83991 6.74675 9.03991 6.34675L9.99991 4.44008C10.7866 2.88008 12.7599 1.66675 14.4799 1.66675H17.5332C19.2532 1.66675 21.2132 2.88008 21.9999 4.42675L22.9599 6.37341C23.1599 6.74675 23.5599 7.00008 23.9999 7.00008C25.6532 7.00008 27.2532 7.69341 28.3866 8.90675C29.5332 10.1334 30.1066 11.7201 29.9999 13.3867L29.3066 24.4001C29.0666 28.1734 26.7599 30.3334 22.9866 30.3334ZM14.4799 3.66675C13.4932 3.66675 12.2399 4.44008 11.7866 5.33341L10.8266 7.25342C10.2666 8.33342 9.18657 9.00008 7.99991 9.00008C6.87991 9.00008 5.83991 9.45341 5.06657 10.2667C4.30657 11.0801 3.91991 12.1467 3.99991 13.2534L4.69324 24.2668C4.85324 26.9601 6.30657 28.3334 9.01324 28.3334H22.9866C25.6799 28.3334 27.1332 26.9601 27.3066 24.2668L27.9999 13.2534C28.0666 12.1467 27.6932 11.0801 26.9332 10.2667C26.1599 9.45341 25.1199 9.00008 23.9999 9.00008C22.8132 9.00008 21.7332 8.33342 21.1732 7.28008L20.1999 5.33341C19.7599 4.45341 18.5066 3.68008 17.5199 3.68008H14.4799V3.66675Z" fill="white"/>
<path d="M18 11.6667H14C13.4533 11.6667 13 11.2134 13 10.6667C13 10.1201 13.4533 9.66675 14 9.66675H18C18.5467 9.66675 19 10.1201 19 10.6667C19 11.2134 18.5467 11.6667 18 11.6667Z" fill="white"/>
<path d="M16.0001 24.9999C13.0534 24.9999 10.6667 22.6133 10.6667 19.6666C10.6667 16.7199 13.0534 14.3333 16.0001 14.3333C18.9467 14.3333 21.3334 16.7199 21.3334 19.6666C21.3334 22.6133 18.9467 24.9999 16.0001 24.9999ZM16.0001 16.3333C14.1601 16.3333 12.6667 17.8266 12.6667 19.6666C12.6667 21.5066 14.1601 22.9999 16.0001 22.9999C17.8401 22.9999 19.3334 21.5066 19.3334 19.6666C19.3334 17.8266 17.8401 16.3333 16.0001 16.3333Z" fill="white"/>
</svg>
