<svg width="40" height="40" viewBox="0 0 40 40" fill="none" xmlns="http://www.w3.org/2000/svg">
<rect width="40" height="40" rx="20" fill="#D6E4FF"/>
<path d="M20.133 19.6834C20.108 19.6834 20.0913 19.6834 20.0663 19.6834C20.0247 19.6751 19.9663 19.6751 19.9163 19.6834C17.4997 19.6084 15.6747 17.7084 15.6747 15.3667C15.6747 12.9834 17.6163 11.0417 19.9997 11.0417C22.383 11.0417 24.3247 12.9834 24.3247 15.3667C24.3164 17.7084 22.483 19.6084 20.158 19.6834C20.1497 19.6834 20.1413 19.6834 20.133 19.6834ZM19.9997 12.2917C18.308 12.2917 16.9247 13.6751 16.9247 15.3667C16.9247 17.0334 18.2247 18.3751 19.883 18.4334C19.9247 18.4251 20.0413 18.4251 20.1497 18.4334C21.783 18.3584 23.0663 17.0167 23.0747 15.3667C23.0747 13.6751 21.6913 12.2917 19.9997 12.2917Z" fill="#3366FF"/>
<path d="M20.1413 28.7916C18.508 28.7916 16.8663 28.3749 15.6247 27.5416C14.4663 26.7749 13.833 25.7249 13.833 24.5833C13.833 23.4416 14.4663 22.3833 15.6247 21.6083C18.1247 19.9499 22.1747 19.9499 24.658 21.6083C25.808 22.3749 26.4497 23.4249 26.4497 24.5666C26.4497 25.7083 25.8163 26.7666 24.658 27.5416C23.408 28.3749 21.7747 28.7916 20.1413 28.7916ZM16.3163 22.6583C15.5163 23.1916 15.083 23.8749 15.083 24.5916C15.083 25.2999 15.5247 25.9833 16.3163 26.5083C18.3913 27.8999 21.8913 27.8999 23.9663 26.5083C24.7663 25.9749 25.1997 25.2916 25.1997 24.5749C25.1997 23.8666 24.758 23.1833 23.9663 22.6583C21.8913 21.2749 18.3913 21.2749 16.3163 22.6583Z" fill="#3366FF"/>
</svg>
