<svg width="25" height="24" viewBox="0 0 25 24" fill="none" xmlns="http://www.w3.org/2000/svg">
<path d="M12.7 18.75C12.29 18.75 11.95 18.41 11.95 18V15C11.95 14.59 12.29 14.25 12.7 14.25C13.11 14.25 13.45 14.59 13.45 15V18C13.45 18.41 13.11 18.75 12.7 18.75Z" fill="#9CA3AF"/>
<path d="M18.2999 22.5599H7.09991C5.27991 22.5599 3.61991 21.1599 3.31991 19.3699L1.98991 11.3999C1.76991 10.1599 2.37991 8.56994 3.36991 7.77994L10.2999 2.22994C11.6399 1.14994 13.7499 1.15994 15.0999 2.23994L22.0299 7.77994C23.0099 8.56994 23.6099 10.1599 23.4099 11.3999L22.0799 19.3599C21.7799 21.1299 20.0799 22.5599 18.2999 22.5599ZM12.6899 2.92994C12.1599 2.92994 11.6299 3.08994 11.2399 3.39994L4.30991 8.95994C3.74991 9.40994 3.34991 10.4499 3.46991 11.1599L4.79991 19.1199C4.97991 20.1699 6.02991 21.0599 7.09991 21.0599H18.2999C19.3699 21.0599 20.4199 20.1699 20.5999 19.1099L21.9299 11.1499C22.0399 10.4499 21.6399 9.38994 21.0899 8.94994L14.1599 3.40994C13.7599 3.08994 13.2199 2.92994 12.6899 2.92994Z" fill="#9CA3AF"/>
</svg>
