<svg width="40" height="40" viewBox="0 0 40 40" fill="none" xmlns="http://www.w3.org/2000/svg">
<rect width="40" height="40" rx="20" fill="#D6E4FF"/>
<path d="M20 28.9584C15.0583 28.9584 11.0416 24.9417 11.0416 20.0001C11.0416 15.0584 15.0583 11.0417 20 11.0417C24.9416 11.0417 28.9583 15.0584 28.9583 20.0001C28.9583 24.9417 24.9416 28.9584 20 28.9584ZM20 12.2917C15.75 12.2917 12.2916 15.7501 12.2916 20.0001C12.2916 24.2501 15.75 27.7084 20 27.7084C24.25 27.7084 27.7083 24.2501 27.7083 20.0001C27.7083 15.7501 24.25 12.2917 20 12.2917Z" fill="#3366FF"/>
<path d="M17.5 28.125H16.6666C16.325 28.125 16.0416 27.8417 16.0416 27.5C16.0416 27.1583 16.3083 26.8833 16.65 26.875C15.3416 22.4083 15.3416 17.5917 16.65 13.125C16.3083 13.1167 16.0416 12.8417 16.0416 12.5C16.0416 12.1583 16.325 11.875 16.6666 11.875H17.5C17.7 11.875 17.8916 11.975 18.0083 12.1333C18.125 12.3 18.1583 12.5083 18.0916 12.7C16.525 17.4083 16.525 22.5917 18.0916 27.3083C18.1583 27.5 18.125 27.7083 18.0083 27.875C17.8916 28.025 17.7 28.125 17.5 28.125Z" fill="#3366FF"/>
<path d="M22.5 28.125C22.4333 28.125 22.3667 28.1167 22.3 28.0917C21.975 27.9833 21.7917 27.625 21.9083 27.3C23.475 22.5917 23.475 17.4083 21.9083 12.6917C21.8 12.3667 21.975 12.0083 22.3 11.9C22.6333 11.7917 22.9833 11.9667 23.0917 12.2917C24.75 17.2583 24.75 22.725 23.0917 27.6833C23.0083 27.9583 22.7583 28.125 22.5 28.125Z" fill="#3366FF"/>
<path d="M20 24.3332C17.675 24.3332 15.3583 24.0082 13.125 23.3499C13.1167 23.6832 12.8417 23.9582 12.5 23.9582C12.1583 23.9582 11.875 23.6749 11.875 23.3332V22.4999C11.875 22.2999 11.975 22.1082 12.1333 21.9916C12.3 21.8749 12.5083 21.8416 12.7 21.9082C17.4083 23.4749 22.6 23.4749 27.3083 21.9082C27.5 21.8416 27.7083 21.8749 27.875 21.9916C28.0417 22.1082 28.1333 22.2999 28.1333 22.4999V23.3332C28.1333 23.6749 27.85 23.9582 27.5083 23.9582C27.1667 23.9582 26.8917 23.6916 26.8833 23.3499C24.6417 24.0082 22.325 24.3332 20 24.3332Z" fill="#3366FF"/>
<path d="M27.5 18.125C27.4334 18.125 27.3667 18.1166 27.3 18.0916C22.5917 16.525 17.4 16.525 12.6917 18.0916C12.3584 18.2 12.0084 18.025 11.9 17.7C11.8 17.3666 11.975 17.0166 12.3 16.9083C17.2667 15.25 22.7334 15.25 27.6917 16.9083C28.0167 17.0166 28.2 17.375 28.0834 17.7C28.0084 17.9583 27.7584 18.125 27.5 18.125Z" fill="#3366FF"/>
</svg>
