<svg width="40" height="40" viewBox="0 0 40 40" fill="none" xmlns="http://www.w3.org/2000/svg">
<rect width="40" height="40" rx="20" fill="#D6E4FF"/>
<path d="M25 18.9584C24.6583 18.9584 24.375 18.6751 24.375 18.3334V16.6667C24.375 14.0417 23.6333 12.2917 20 12.2917C16.3667 12.2917 15.625 14.0417 15.625 16.6667V18.3334C15.625 18.6751 15.3417 18.9584 15 18.9584C14.6583 18.9584 14.375 18.6751 14.375 18.3334V16.6667C14.375 14.2501 14.9583 11.0417 20 11.0417C25.0417 11.0417 25.625 14.2501 25.625 16.6667V18.3334C25.625 18.6751 25.3417 18.9584 25 18.9584Z" fill="#3366FF"/>
<path d="M20 26.0417C18.5083 26.0417 17.2916 24.825 17.2916 23.3333C17.2916 21.8417 18.5083 20.625 20 20.625C21.4916 20.625 22.7083 21.8417 22.7083 23.3333C22.7083 24.825 21.4916 26.0417 20 26.0417ZM20 21.875C19.2 21.875 18.5416 22.5333 18.5416 23.3333C18.5416 24.1333 19.2 24.7917 20 24.7917C20.8 24.7917 21.4583 24.1333 21.4583 23.3333C21.4583 22.5333 20.8 21.875 20 21.875Z" fill="#3366FF"/>
<path d="M24.1666 28.9583H15.8333C12.1583 28.9583 11.0416 27.8416 11.0416 24.1666V22.4999C11.0416 18.8249 12.1583 17.7083 15.8333 17.7083H24.1666C27.8416 17.7083 28.9583 18.8249 28.9583 22.4999V24.1666C28.9583 27.8416 27.8416 28.9583 24.1666 28.9583ZM15.8333 18.9583C12.85 18.9583 12.2916 19.5249 12.2916 22.4999V24.1666C12.2916 27.1416 12.85 27.7083 15.8333 27.7083H24.1666C27.15 27.7083 27.7083 27.1416 27.7083 24.1666V22.4999C27.7083 19.5249 27.15 18.9583 24.1666 18.9583H15.8333Z" fill="#3366FF"/>
</svg>
