<svg width="25" height="24" viewBox="0 0 25 24" fill="none" xmlns="http://www.w3.org/2000/svg">
<path d="M12.1 22.81C11.41 22.81 10.76 22.46 10.3 21.85L8.79998 19.85C8.76998 19.81 8.64998 19.76 8.59998 19.75H8.09998C3.92998 19.75 1.34998 18.62 1.34998 13V8C1.34998 3.58 3.67998 1.25 8.09998 1.25H16.1C20.52 1.25 22.85 3.58 22.85 8V13C22.85 17.42 20.52 19.75 16.1 19.75H15.6C15.52 19.75 15.45 19.79 15.4 19.85L13.9 21.85C13.44 22.46 12.79 22.81 12.1 22.81ZM8.09998 2.75C4.51998 2.75 2.84998 4.42 2.84998 8V13C2.84998 17.52 4.39998 18.25 8.09998 18.25H8.59998C9.10998 18.25 9.68997 18.54 9.99998 18.95L11.5 20.95C11.85 21.41 12.35 21.41 12.7 20.95L14.2 18.95C14.53 18.51 15.05 18.25 15.6 18.25H16.1C19.68 18.25 21.35 16.58 21.35 13V8C21.35 4.42 19.68 2.75 16.1 2.75H8.09998Z" fill="#9CA3AF"/>
<path d="M12.1 12C11.54 12 11.1 11.55 11.1 11C11.1 10.45 11.55 10 12.1 10C12.65 10 13.1 10.45 13.1 11C13.1 11.55 12.66 12 12.1 12Z" fill="#9CA3AF"/>
<path d="M16.1 12C15.54 12 15.1 11.55 15.1 11C15.1 10.45 15.55 10 16.1 10C16.65 10 17.1 10.45 17.1 11C17.1 11.55 16.66 12 16.1 12Z" fill="#9CA3AF"/>
<path d="M8.09998 12C7.53998 12 7.09998 11.55 7.09998 11C7.09998 10.45 7.54998 10 8.09998 10C8.64998 10 9.09998 10.45 9.09998 11C9.09998 11.55 8.65998 12 8.09998 12Z" fill="#9CA3AF"/>
</svg>
