<svg width="40" height="40" viewBox="0 0 40 40" fill="none" xmlns="http://www.w3.org/2000/svg">
<rect width="40" height="40" rx="20" fill="#D6E4FF"/>
<path d="M20.0171 12.3083C22.8408 12.3086 25.1421 14.6096 25.1421 17.4333V19.8416C25.1421 20.0962 25.1994 20.4093 25.2759 20.6892C25.3524 20.9695 25.4623 21.27 25.5933 21.4939L26.5454 23.0808V23.0818C26.8259 23.5515 26.8789 24.119 26.689 24.6365C26.5006 25.1494 26.0916 25.5393 25.5767 25.7087L25.5737 25.7097C23.7936 26.3084 21.9061 26.6081 20.0171 26.6082C18.128 26.6082 16.2389 26.3078 14.4497 25.7087C13.8762 25.5092 13.4703 25.1182 13.2954 24.6375L13.2925 24.6326L13.2358 24.448C13.1286 24.0122 13.2045 23.5356 13.478 23.0837V23.0828L14.437 21.491C14.5698 21.2697 14.6805 20.9711 14.7573 20.6921C14.8342 20.4129 14.8921 20.1 14.8921 19.8416V17.4333C14.8921 14.6095 17.1932 12.3083 20.0171 12.3083ZM20.0171 12.5583C17.3332 12.5583 15.1421 14.7399 15.1421 17.4333V19.8416C15.1421 20.3567 14.918 21.1657 14.6548 21.6169L13.6968 23.2087L13.6948 23.2107C13.4598 23.606 13.3577 24.0878 13.5288 24.5408V24.5417C13.5294 24.5434 13.5302 24.545 13.5308 24.5466C13.5322 24.5505 13.5332 24.5545 13.5347 24.5583L13.5356 24.5574C13.7029 25.0124 14.0901 25.3144 14.5298 25.4646L14.5327 25.4656C18.1191 26.6668 21.9229 26.6668 25.5093 25.4656L25.5083 25.4646C25.9517 25.3166 26.3016 24.982 26.4624 24.5369C26.6192 24.1026 26.5853 23.6187 26.3364 23.2078H26.3354L25.3784 21.6169C25.1075 21.1501 24.8922 20.3501 24.8921 19.8337V17.4333C24.8921 14.7407 22.7097 12.5585 20.0171 12.5583Z" fill="#3366FF" stroke="#3366FF"/>
<path d="M20.0253 11.4834C20.7704 11.4835 21.4159 11.925 21.6825 12.6133C21.7012 12.6693 21.6876 12.7147 21.6659 12.7422C21.6425 12.766 21.6048 12.7832 21.5663 12.7832C21.5563 12.7832 21.5444 12.7817 21.5292 12.7773L21.5243 12.7764C21.2651 12.7049 21.0115 12.6508 20.7645 12.6143V12.6133L20.7557 12.6123C20.0797 12.5248 19.4178 12.5554 18.785 12.707L18.5155 12.7793L18.5057 12.7822C18.4679 12.7944 18.4201 12.7839 18.3876 12.748C18.3534 12.7103 18.3466 12.6628 18.3632 12.6221L18.3661 12.6152C18.6332 11.9314 19.2821 11.4834 20.0253 11.4834Z" fill="#3366FF" stroke="#3366FF"/>
<path d="M17.6974 26.3833C17.7938 26.8254 18.0144 27.2384 18.338 27.562C18.7815 28.0055 19.3921 28.2583 20.0167 28.2583C21.1546 28.2583 22.1066 27.4534 22.337 26.3833H22.5919C22.358 27.5931 21.2945 28.5083 20.0167 28.5083C19.3251 28.5083 18.6524 28.2279 18.1622 27.7378C17.7916 27.3672 17.5417 26.892 17.4415 26.3833H17.6974Z" fill="#292D32" stroke="#3366FF"/>
</svg>
