<svg width="40" height="40" viewBox="0 0 40 40" fill="none" xmlns="http://www.w3.org/2000/svg">
<rect width="40" height="40" rx="20" fill="#D6E4FF"/>
<path d="M20 24.9C19.7916 24.9 19.575 24.825 19.4083 24.675L17.2583 22.7916C16.45 22.0833 16.3416 20.8666 17.0166 20.025C17.7 19.175 18.9166 19.0166 19.7916 19.675L20 19.8333L20.2166 19.6666C21.0916 19.0083 22.3083 19.1666 22.9916 20.0166C23.6666 20.8583 23.5583 22.075 22.75 22.7833L20.6 24.6666C20.425 24.825 20.2083 24.9 20 24.9ZM18.075 21.85L20 23.5333L21.925 21.85C22.2333 21.5833 22.275 21.125 22.0166 20.8083C21.7583 20.4833 21.3 20.425 20.9666 20.675L20.375 21.1166C20.15 21.2833 19.85 21.2833 19.625 21.1166L19.0333 20.675C18.7083 20.425 18.2416 20.4833 17.9833 20.8083C17.7333 21.125 17.775 21.5833 18.075 21.85Z" fill="#3366FF"/>
<path d="M24.1666 28.9584H15.8333C12.1583 28.9584 11.0416 27.8417 11.0416 24.1667V15.8334C11.0416 12.1584 12.1583 11.0417 15.8333 11.0417H17.0833C18.5416 11.0417 19 11.5167 19.5833 12.2917L20.8333 13.9584C21.1083 14.3251 21.15 14.3751 21.6666 14.3751H24.1666C27.8416 14.3751 28.9583 15.4917 28.9583 19.1667V24.1667C28.9583 27.8417 27.8416 28.9584 24.1666 28.9584ZM15.8333 12.2917C12.85 12.2917 12.2916 12.8584 12.2916 15.8334V24.1667C12.2916 27.1417 12.85 27.7084 15.8333 27.7084H24.1666C27.15 27.7084 27.7083 27.1417 27.7083 24.1667V19.1667C27.7083 16.1917 27.15 15.6251 24.1666 15.6251H21.6666C20.6 15.6251 20.25 15.2584 19.8333 14.7084L18.5833 13.0417C18.15 12.4667 18.0166 12.2917 17.0833 12.2917H15.8333Z" fill="#3366FF"/>
</svg>
