<svg width="25" height="24" viewBox="0 0 25 24" fill="none" xmlns="http://www.w3.org/2000/svg">
<path d="M12.4596 11.62C12.4296 11.62 12.4096 11.62 12.3796 11.62C12.3296 11.61 12.2596 11.61 12.1996 11.62C9.29962 11.53 7.10962 9.25 7.10962 6.44C7.10962 3.58 9.43962 1.25 12.2996 1.25C15.1596 1.25 17.4896 3.58 17.4896 6.44C17.4796 9.25 15.2796 11.53 12.4896 11.62C12.4796 11.62 12.4696 11.62 12.4596 11.62ZM12.2996 2.75C10.2696 2.75 8.60962 4.41 8.60962 6.44C8.60962 8.44 10.1696 10.05 12.1596 10.12C12.2096 10.11 12.3496 10.11 12.4796 10.12C14.4396 10.03 15.9796 8.42 15.9896 6.44C15.9896 4.41 14.3296 2.75 12.2996 2.75Z" fill="#9CA3AF"/>
<path d="M12.4696 22.55C10.5096 22.55 8.5396 22.05 7.0496 21.05C5.6596 20.13 4.8996 18.87 4.8996 17.5C4.8996 16.13 5.6596 14.86 7.0496 13.93C10.0496 11.94 14.9096 11.94 17.8896 13.93C19.2696 14.85 20.0396 16.11 20.0396 17.48C20.0396 18.85 19.2796 20.12 17.8896 21.05C16.3896 22.05 14.4296 22.55 12.4696 22.55ZM7.8796 15.19C6.9196 15.83 6.3996 16.65 6.3996 17.51C6.3996 18.36 6.9296 19.18 7.8796 19.81C10.3696 21.48 14.5696 21.48 17.0596 19.81C18.0196 19.17 18.5396 18.35 18.5396 17.49C18.5396 16.64 18.0096 15.82 17.0596 15.19C14.5696 13.53 10.3696 13.53 7.8796 15.19Z" fill="#9CA3AF"/>
</svg>
