<svg width="25" height="24" viewBox="0 0 25 24" fill="none" xmlns="http://www.w3.org/2000/svg">
<path d="M15.4 11.3999H10.4C9.99002 11.3999 9.65002 11.0599 9.65002 10.6499C9.65002 10.2399 9.99002 9.8999 10.4 9.8999H15.4C15.81 9.8999 16.15 10.2399 16.15 10.6499C16.15 11.0599 15.81 11.3999 15.4 11.3999Z" fill="#9CA3AF"/>
<path d="M5.83002 22.75C5.41002 22.75 5.02002 22.65 4.67002 22.45C3.90002 22 3.46002 21.09 3.46002 19.96V5.86C3.46002 3.32 5.53002 1.25 8.07002 1.25H17.72C20.26 1.25 22.33 3.32 22.33 5.86V19.95C22.33 21.08 21.89 21.99 21.12 22.44C20.35 22.89 19.34 22.84 18.35 22.29L13.47 19.58C13.18 19.42 12.61 19.42 12.32 19.58L7.44002 22.29C6.90002 22.59 6.35002 22.75 5.83002 22.75ZM8.08002 2.75C6.37002 2.75 4.97002 4.15 4.97002 5.86V19.95C4.97002 20.54 5.14002 20.98 5.44002 21.15C5.74002 21.33 6.21002 21.27 6.72002 20.98L11.6 18.27C12.34 17.86 13.46 17.86 14.2 18.27L19.08 20.98C19.59 21.27 20.06 21.33 20.36 21.15C20.66 20.97 20.83 20.53 20.83 19.95V5.86C20.83 4.15 19.43 2.75 17.72 2.75H8.08002V2.75Z" fill="#9CA3AF"/>
</svg>
