<svg width="20" height="20" viewBox="0 0 20 20" fill="none" xmlns="http://www.w3.org/2000/svg">
<path d="M5.83374 2.79163H14.1667C15.5925 2.79163 16.6491 3.19994 17.3494 3.90002C18.0496 4.6003 18.4587 5.65769 18.4587 7.08362V12.9166C18.4587 14.3425 18.0496 15.399 17.3494 16.0992C16.6491 16.7995 15.5927 17.2086 14.1667 17.2086H5.83374C4.40782 17.2086 3.35043 16.7995 2.65015 16.0992C1.95007 15.399 1.54175 14.3423 1.54175 12.9166V7.08362C1.54175 5.65769 1.94987 4.6003 2.65015 3.90002C3.35043 3.19974 4.40782 2.79163 5.83374 2.79163ZM5.83374 3.04163C4.56858 3.04163 3.5313 3.34895 2.81519 4.06506C2.09907 4.78118 1.79175 5.81846 1.79175 7.08362V12.9166C1.79175 14.1818 2.09907 15.2191 2.81519 15.9352C3.53129 16.6512 4.56868 16.9586 5.83374 16.9586H14.1667C15.4319 16.9586 16.4692 16.6513 17.1853 15.9352C17.9014 15.2191 18.2087 14.1818 18.2087 12.9166V7.08362C18.2087 5.81856 17.9013 4.78117 17.1853 4.06506C16.4692 3.34895 15.4319 3.04163 14.1667 3.04163H5.83374Z" fill="#292D32" stroke="#111827"/>
<path d="M14.0896 7.39648C14.1437 7.35252 14.2185 7.36795 14.2507 7.41016L14.2566 7.41699L14.2615 7.42383C14.2945 7.46449 14.2944 7.51659 14.2742 7.55371L14.2478 7.58496L14.238 7.59277L11.6296 9.67578L11.6228 9.68164C11.1933 10.0373 10.6031 10.2246 9.99976 10.2246C9.3973 10.2246 8.80566 10.0372 8.36597 9.67871L8.36206 9.67578L5.75464 7.59375C5.69352 7.54244 5.69598 7.46507 5.72925 7.42383C5.78064 7.36058 5.85951 7.36268 5.90112 7.39648L5.90405 7.39941L8.51245 9.48242C8.93367 9.82013 9.47753 9.97266 9.99585 9.97266C10.514 9.9726 11.0572 9.81993 11.4783 9.48242L14.0867 7.39941L14.0896 7.39648Z" fill="#292D32" stroke="#111827"/>
</svg>
